<svg width="237" height="27" viewBox="0 0 237 27" fill="none" xmlns="http://www.w3.org/2000/svg">
<g clip-path="url(#clip0_31_13)">
<path d="M21.7617 26L12.9727 26.4219L12.9023 18.3008H8.85938L8.61328 26H0.738281L1.40625 1.28516L9.77344 1.67188L9.24609 14.293H13.1484L13.1836 0.722656L21.1992 0.933594L21.7617 26ZM45.1055 2.19922L36.8438 15.6992L37.0898 25.6484H28.0547L28.2656 15.7695L21.832 2.72656L30.7969 1.60156L33.6094 9.19531L36.668 1.60156L45.1055 2.19922ZM65.707 9.79297C65.707 10.9297 65.5371 11.9375 65.1973 12.8164C64.8574 13.6953 64.3887 14.4688 63.791 15.1367C63.2051 15.793 62.5137 16.3496 61.7168 16.8066C60.9199 17.252 60.0645 17.6211 59.1504 17.9141C58.248 18.1953 57.3105 18.4062 56.3379 18.5469C55.3652 18.6758 54.4102 18.7461 53.4727 18.7578V26.2461H45.2812C45.2812 24.9102 45.2812 23.6094 45.2812 22.3438C45.293 21.0781 45.2988 19.8242 45.2988 18.582C45.3105 17.3281 45.3164 16.0684 45.3164 14.8027C45.3281 13.5371 45.3398 12.2305 45.3516 10.8828C45.375 9.45312 45.3809 8.02344 45.3691 6.59375C45.3574 5.16406 45.3867 3.72266 45.457 2.26953C46.957 1.82422 48.457 1.49023 49.957 1.26758C51.457 1.04492 53.0039 0.933594 54.5977 0.933594C55.5 0.933594 56.4023 1.00977 57.3047 1.16211C58.207 1.30273 59.0684 1.53125 59.8887 1.84766C60.7207 2.16406 61.4883 2.5625 62.1914 3.04297C62.9062 3.51172 63.5215 4.07422 64.0371 4.73047C64.5527 5.38672 64.957 6.13672 65.25 6.98047C65.5547 7.82422 65.707 8.76172 65.707 9.79297ZM57.9023 10.3906C57.9023 9.62891 57.668 9.03711 57.1992 8.61523C56.7422 8.18164 56.1445 7.96484 55.4062 7.96484C55.1602 7.96484 54.9023 7.98828 54.6328 8.03516C54.375 8.07031 54.1289 8.11719 53.8945 8.17578L53.6836 13.3086C53.8477 13.332 54.0059 13.3438 54.1582 13.3438C54.3105 13.3438 54.4688 13.3438 54.6328 13.3438C55.0547 13.3438 55.459 13.2734 55.8457 13.1328C56.2441 12.9922 56.5957 12.793 56.9004 12.5352C57.2051 12.2656 57.4453 11.9551 57.6211 11.6035C57.8086 11.2402 57.9023 10.8359 57.9023 10.3906ZM86.3262 11.7969C86.3262 12.8164 86.2559 13.8359 86.1152 14.8555C84.1113 14.9844 82.1191 15.1953 80.1387 15.4883C78.1582 15.7695 76.1777 16.0508 74.1973 16.332C74.502 17.1758 74.9766 17.8496 75.6211 18.3535C76.2773 18.8574 77.0566 19.1094 77.959 19.1094C78.4277 19.1094 78.9375 19.0215 79.4883 18.8457C80.0508 18.6699 80.6074 18.4531 81.1582 18.1953C81.709 17.9258 82.2363 17.6387 82.7402 17.334C83.2441 17.0293 83.6777 16.7539 84.041 16.5078L83.1973 24.4883C82.7402 24.8398 82.2422 25.1387 81.7031 25.3848C81.1758 25.6309 80.625 25.8301 80.0508 25.9824C79.4766 26.1348 78.8965 26.2461 78.3105 26.3164C77.7246 26.3867 77.1504 26.4219 76.5879 26.4219C75.4277 26.4219 74.3672 26.2637 73.4062 25.9473C72.4453 25.6309 71.5723 25.1914 70.7871 24.6289C70.0137 24.0547 69.334 23.3809 68.748 22.6074C68.1621 21.834 67.6758 20.9902 67.2891 20.0762C66.9023 19.1621 66.6094 18.1953 66.4102 17.1758C66.2109 16.1562 66.1113 15.125 66.1113 14.082C66.1113 12.9922 66.2109 11.9023 66.4102 10.8125C66.6094 9.72266 66.9082 8.67383 67.3066 7.66602C67.7168 6.6582 68.2266 5.72656 68.8359 4.87109C69.457 4.00391 70.1777 3.24805 70.998 2.60352C71.8184 1.95898 72.7441 1.45508 73.7754 1.0918C74.8184 0.728516 75.9668 0.546875 77.2207 0.546875C78.2637 0.546875 79.2129 0.693359 80.0684 0.986328C80.9355 1.26758 81.7031 1.66602 82.3711 2.18164C83.0508 2.68555 83.6367 3.28906 84.1289 3.99219C84.6328 4.69531 85.043 5.46875 85.3594 6.3125C85.6875 7.14453 85.9277 8.0293 86.0801 8.9668C86.2441 9.89258 86.3262 10.8359 86.3262 11.7969ZM79.2949 10.8828C79.2949 10.5547 79.2598 10.2207 79.1895 9.88086C79.1191 9.5293 79.002 9.21289 78.8379 8.93164C78.6855 8.65039 78.4805 8.42188 78.2227 8.24609C77.9648 8.05859 77.6426 7.96484 77.2559 7.96484C76.7871 7.96484 76.3711 8.09375 76.0078 8.35156C75.6562 8.59766 75.3516 8.91406 75.0938 9.30078C74.8359 9.67578 74.625 10.0859 74.4609 10.5312C74.2969 10.9766 74.1738 11.3867 74.0918 11.7617L79.2949 11.2695V10.8828ZM108.088 9.05469C108.088 9.96875 108.006 10.8008 107.842 11.5508C107.689 12.2891 107.443 12.9688 107.104 13.5898C106.764 14.2109 106.324 14.7852 105.785 15.3125C105.246 15.8398 104.596 16.3438 103.834 16.8242L108.018 24.2773L100.107 25.8242L97.4004 18.3359L95.2207 18.4062L94.9043 25.7188H87.3457C87.4043 23.0469 87.457 20.3867 87.5039 17.7383C87.5625 15.0898 87.627 12.4297 87.6973 9.75781C87.7207 8.41016 87.7441 7.07422 87.7676 5.75C87.791 4.42578 87.8379 3.08984 87.9082 1.74219C88.7285 1.4375 89.5371 1.18555 90.334 0.986328C91.1309 0.787109 91.9277 0.634766 92.7246 0.529297C93.5332 0.412109 94.3477 0.335938 95.168 0.300781C96 0.253906 96.8496 0.230469 97.7168 0.230469C99.0527 0.230469 100.342 0.417969 101.584 0.792969C102.838 1.15625 103.945 1.70703 104.906 2.44531C105.867 3.18359 106.635 4.10352 107.209 5.20508C107.795 6.30664 108.088 7.58984 108.088 9.05469ZM100.213 9.61719C100.213 9.125 100.143 8.67383 100.002 8.26367C99.873 7.85352 99.6738 7.50195 99.4043 7.20898C99.1465 6.9043 98.8184 6.66992 98.4199 6.50586C98.0332 6.33008 97.5762 6.24219 97.0488 6.24219C96.8145 6.24219 96.5859 6.25977 96.3633 6.29492C96.1406 6.31836 95.9238 6.35938 95.7129 6.41797L95.4316 12.957H95.8535C96.3574 12.957 96.8672 12.8926 97.3828 12.7637C97.9102 12.6348 98.3789 12.4355 98.7891 12.166C99.2109 11.8965 99.5508 11.5508 99.8086 11.1289C100.078 10.707 100.213 10.2031 100.213 9.61719ZM129.779 19.7422C129.779 20.7148 129.598 21.5527 129.234 22.2559C128.883 22.959 128.408 23.5566 127.811 24.0488C127.213 24.541 126.521 24.9453 125.736 25.2617C124.963 25.5664 124.154 25.8066 123.311 25.9824C122.467 26.1582 121.617 26.2754 120.762 26.334C119.918 26.3926 119.127 26.4219 118.389 26.4219C117.662 26.4219 116.906 26.3926 116.121 26.334C115.348 26.2871 114.574 26.1992 113.801 26.0703C113.027 25.9414 112.266 25.7715 111.516 25.5605C110.766 25.3379 110.057 25.0625 109.389 24.7344L109.354 2.09375C110.01 1.82422 110.707 1.58398 111.445 1.37305C112.184 1.15039 112.934 0.96875 113.695 0.828125C114.469 0.675781 115.236 0.564453 115.998 0.494141C116.76 0.412109 117.498 0.371094 118.213 0.371094C119.045 0.371094 119.883 0.423828 120.727 0.529297C121.582 0.634766 122.402 0.810547 123.188 1.05664C123.973 1.30273 124.705 1.625 125.385 2.02344C126.064 2.41016 126.656 2.89062 127.16 3.46484C127.676 4.03906 128.074 4.70703 128.355 5.46875C128.648 6.23047 128.795 7.10937 128.795 8.10547C128.795 8.76172 128.701 9.37695 128.514 9.95117C128.326 10.5254 128.057 11.041 127.705 11.498C127.354 11.9551 126.926 12.3477 126.422 12.6758C125.918 12.9922 125.35 13.2266 124.717 13.3789C125.479 13.5781 126.17 13.8711 126.791 14.2578C127.424 14.6445 127.957 15.1133 128.391 15.6641C128.836 16.2148 129.176 16.8359 129.41 17.5273C129.656 18.2188 129.779 18.957 129.779 19.7422ZM120.85 9.72266C120.85 9.38281 120.779 9.0957 120.639 8.86133C120.498 8.61523 120.322 8.41602 120.111 8.26367C119.912 8.11133 119.689 8 119.443 7.92969C119.209 7.85938 118.998 7.82422 118.811 7.82422C118.576 7.82422 118.348 7.85938 118.125 7.92969C117.902 8 117.686 8.08203 117.475 8.17578L117.369 12.0781C117.639 12.0781 117.973 12.0547 118.371 12.0078C118.77 11.9609 119.15 11.8613 119.514 11.709C119.889 11.5449 120.205 11.3105 120.463 11.0059C120.721 10.6895 120.85 10.2617 120.85 9.72266ZM118.354 15.4531C118.014 15.4531 117.686 15.4883 117.369 15.5586L117.299 19.5664C117.475 19.6016 117.645 19.6367 117.809 19.6719C117.984 19.6953 118.154 19.707 118.318 19.707C118.564 19.707 118.834 19.6836 119.127 19.6367C119.42 19.5781 119.695 19.4727 119.953 19.3203C120.211 19.1562 120.422 18.9395 120.586 18.6699C120.762 18.4004 120.85 18.043 120.85 17.5977C120.85 17.1523 120.762 16.7891 120.586 16.5078C120.422 16.2266 120.217 16.0098 119.971 15.8574C119.725 15.6934 119.455 15.5879 119.162 15.541C118.869 15.4824 118.6 15.4531 118.354 15.4531ZM151.682 1.25C151.154 5.375 150.703 9.48242 150.328 13.5723C149.953 17.6504 149.596 21.7578 149.256 25.8945L142.049 26.4219L142.365 23.7148C142.131 23.9844 141.855 24.2188 141.539 24.418C141.234 24.6172 140.906 24.7812 140.555 24.9102C140.203 25.0273 139.84 25.1152 139.465 25.1738C139.09 25.2207 138.732 25.2383 138.393 25.2266C137.596 25.2148 136.846 25.0625 136.143 24.7695C135.439 24.4648 134.795 24.0664 134.209 23.5742C133.623 23.0703 133.096 22.4902 132.627 21.834C132.158 21.166 131.76 20.4688 131.432 19.7422C131.115 19.0039 130.869 18.2539 130.693 17.4922C130.529 16.7305 130.447 15.9922 130.447 15.2773C130.447 14.2227 130.465 13.1328 130.5 12.0078C130.547 10.8711 130.623 9.73438 130.729 8.59766C130.834 7.46094 130.969 6.33594 131.133 5.22266C131.309 4.10938 131.525 3.04297 131.783 2.02344C133.213 2.09375 134.648 2.1582 136.09 2.2168C137.531 2.27539 138.967 2.29297 140.396 2.26953C140.127 3.28906 139.857 4.31445 139.588 5.3457C139.33 6.36523 139.096 7.39648 138.885 8.43945C138.674 9.4707 138.504 10.5078 138.375 11.5508C138.246 12.5938 138.182 13.6484 138.182 14.7148C138.182 14.9609 138.193 15.3125 138.217 15.7695C138.24 16.2266 138.299 16.6777 138.393 17.123C138.498 17.5684 138.65 17.9609 138.85 18.3008C139.061 18.6289 139.354 18.793 139.729 18.793C140.174 18.793 140.572 18.6055 140.924 18.2305C141.275 17.8438 141.586 17.3281 141.855 16.6836C142.125 16.0391 142.354 15.2949 142.541 14.4512C142.74 13.6074 142.904 12.7285 143.033 11.8145C143.174 10.8887 143.285 9.95703 143.367 9.01953C143.449 8.08203 143.508 7.20313 143.543 6.38281C143.59 5.55078 143.619 4.80664 143.631 4.15039C143.654 3.49414 143.666 2.98438 143.666 2.62109C143.666 2.38672 143.66 2.1582 143.648 1.93555C143.637 1.71289 143.619 1.48437 143.596 1.25C144.357 1.27344 145.113 1.29102 145.863 1.30273C146.613 1.31445 147.369 1.32031 148.131 1.32031C148.717 1.32031 149.303 1.32031 149.889 1.32031C150.486 1.30859 151.084 1.28516 151.682 1.25ZM172.652 12.043C172.652 13.6836 172.441 15.1543 172.02 16.4551C171.598 17.7559 171.006 18.9102 170.244 19.918C169.494 20.9141 168.598 21.7637 167.555 22.4668C166.512 23.1699 165.369 23.75 164.127 24.207C162.885 24.6523 161.561 24.9805 160.154 25.1914C158.76 25.4023 157.324 25.5078 155.848 25.5078C155.297 25.5078 154.758 25.4961 154.23 25.4727C153.703 25.4375 153.164 25.3906 152.613 25.332L153.105 2.44531C154.395 2.03516 155.719 1.74805 157.078 1.58398C158.449 1.4082 159.809 1.32031 161.156 1.32031C162.832 1.32031 164.373 1.55469 165.779 2.02344C167.186 2.49219 168.398 3.18359 169.418 4.09766C170.438 5 171.229 6.11914 171.791 7.45508C172.365 8.7793 172.652 10.3086 172.652 12.043ZM160.699 18.793C161.402 18.6875 162.041 18.4766 162.615 18.1602C163.201 17.832 163.705 17.4336 164.127 16.9648C164.549 16.4844 164.871 15.9453 165.094 15.3477C165.328 14.7383 165.445 14.0938 165.445 13.4141C165.445 12.7461 165.375 12.125 165.234 11.5508C165.094 10.9648 164.865 10.4609 164.549 10.0391C164.232 9.60547 163.816 9.26562 163.301 9.01953C162.785 8.76172 162.152 8.62109 161.402 8.59766L160.699 18.793ZM195.012 22.0625C194.461 22.7539 193.781 23.3574 192.973 23.873C192.164 24.3887 191.297 24.8164 190.371 25.1562C189.445 25.4961 188.496 25.7539 187.523 25.9297C186.551 26.0938 185.625 26.1758 184.746 26.1758C183.047 26.1758 181.482 25.8887 180.053 25.3145C178.623 24.7402 177.387 23.9434 176.344 22.9238C175.312 21.8926 174.504 20.668 173.918 19.25C173.332 17.832 173.039 16.2852 173.039 14.6094C173.039 13.332 173.186 12.0898 173.479 10.8828C173.771 9.67578 174.188 8.54492 174.727 7.49023C175.277 6.43555 175.945 5.46875 176.73 4.58984C177.516 3.71094 178.406 2.95508 179.402 2.32227C180.398 1.68945 181.488 1.20312 182.672 0.863281C183.867 0.511719 185.133 0.335938 186.469 0.335938C186.973 0.335938 187.512 0.359375 188.086 0.40625C188.66 0.441406 189.229 0.511719 189.791 0.617188C190.365 0.710937 190.922 0.845703 191.461 1.02148C192 1.19727 192.492 1.41406 192.938 1.67188L192.445 8.38672C191.789 8.14062 191.109 7.97656 190.406 7.89453C189.715 7.80078 189.035 7.75391 188.367 7.75391C187.43 7.75391 186.551 7.88281 185.73 8.14062C184.922 8.38672 184.213 8.75586 183.604 9.24805C183.006 9.74023 182.531 10.3555 182.18 11.0938C181.828 11.832 181.652 12.6875 181.652 13.6602C181.652 14.2695 181.734 14.8613 181.898 15.4355C182.062 15.998 182.309 16.502 182.637 16.9473C182.977 17.3809 183.393 17.7324 183.885 18.002C184.389 18.2715 184.969 18.4062 185.625 18.4062C186.07 18.4062 186.527 18.3477 186.996 18.2305C187.477 18.1133 187.887 17.9141 188.227 17.6328L188.297 16.2617L184.078 16.1914L184.289 10.918C186.035 10.8594 187.781 10.8125 189.527 10.7773C191.273 10.7305 193.031 10.6719 194.801 10.6016L195.012 22.0625ZM215.982 11.7969C215.982 12.8164 215.912 13.8359 215.771 14.8555C213.768 14.9844 211.775 15.1953 209.795 15.4883C207.814 15.7695 205.834 16.0508 203.854 16.332C204.158 17.1758 204.633 17.8496 205.277 18.3535C205.934 18.8574 206.713 19.1094 207.615 19.1094C208.084 19.1094 208.594 19.0215 209.145 18.8457C209.707 18.6699 210.264 18.4531 210.814 18.1953C211.365 17.9258 211.893 17.6387 212.396 17.334C212.9 17.0293 213.334 16.7539 213.697 16.5078L212.854 24.4883C212.396 24.8398 211.898 25.1387 211.359 25.3848C210.832 25.6309 210.281 25.8301 209.707 25.9824C209.133 26.1348 208.553 26.2461 207.967 26.3164C207.381 26.3867 206.807 26.4219 206.244 26.4219C205.084 26.4219 204.023 26.2637 203.062 25.9473C202.102 25.6309 201.229 25.1914 200.443 24.6289C199.67 24.0547 198.99 23.3809 198.404 22.6074C197.818 21.834 197.332 20.9902 196.945 20.0762C196.559 19.1621 196.266 18.1953 196.066 17.1758C195.867 16.1562 195.768 15.125 195.768 14.082C195.768 12.9922 195.867 11.9023 196.066 10.8125C196.266 9.72266 196.564 8.67383 196.963 7.66602C197.373 6.6582 197.883 5.72656 198.492 4.87109C199.113 4.00391 199.834 3.24805 200.654 2.60352C201.475 1.95898 202.4 1.45508 203.432 1.0918C204.475 0.728516 205.623 0.546875 206.877 0.546875C207.92 0.546875 208.869 0.693359 209.725 0.986328C210.592 1.26758 211.359 1.66602 212.027 2.18164C212.707 2.68555 213.293 3.28906 213.785 3.99219C214.289 4.69531 214.699 5.46875 215.016 6.3125C215.344 7.14453 215.584 8.0293 215.736 8.9668C215.9 9.89258 215.982 10.8359 215.982 11.7969ZM208.951 10.8828C208.951 10.5547 208.916 10.2207 208.846 9.88086C208.775 9.5293 208.658 9.21289 208.494 8.93164C208.342 8.65039 208.137 8.42188 207.879 8.24609C207.621 8.05859 207.299 7.96484 206.912 7.96484C206.443 7.96484 206.027 8.09375 205.664 8.35156C205.312 8.59766 205.008 8.91406 204.75 9.30078C204.492 9.67578 204.281 10.0859 204.117 10.5312C203.953 10.9766 203.83 11.3867 203.748 11.7617L208.951 11.2695V10.8828ZM235.758 1.21484L235.582 8.66797L230.344 8.87891L229.711 25.1914L222.293 25.5781L221.625 9.26562L216.387 9.54688L216.598 1.25L235.758 1.21484Z" fill="black"/>
</g>
<defs>
<clipPath id="clip0_31_13">
<rect width="236" height="27" fill="white" transform="translate(0.5)"/>
</clipPath>
</defs>
</svg>
